<svg width="24" height="24" viewBox="0 0 24 24" fill="none" xmlns="http://www.w3.org/2000/svg">
<rect width="24" height="24" fill="#F5F5F5"/>
<g id="Portfolio DevChapter">
<rect width="1440" height="3977" transform="translate(-198 -3610)" fill="black"/>
<g id="SERVICES">
<rect width="1440" height="774" transform="translate(-198 -407)" fill="black"/>
<g id="Github">
<path id="Vector" d="M10.5215 20.5059C10.5215 20.3592 10.4892 20.2144 10.4269 20.0816C10.3647 19.9488 10.274 19.8313 10.1613 19.7375C10.0486 19.6436 9.91663 19.5757 9.77476 19.5386C9.63289 19.5014 9.48458 19.4959 9.34034 19.5225C8.03126 19.7627 6.37843 19.7988 5.93897 18.5645C5.55578 17.6085 4.92105 16.774 4.10206 16.1495C4.04363 16.1177 3.98794 16.0811 3.93556 16.0401C3.86389 15.851 3.73658 15.6881 3.57043 15.5729C3.40428 15.4576 3.2071 15.3955 3.00489 15.3946H3.00001C2.73561 15.3945 2.48194 15.4991 2.29453 15.6856C2.10711 15.8721 2.00121 16.1253 2.00001 16.3897C1.9961 17.2051 2.81101 17.7276 3.14161 17.9043C3.53146 18.296 3.84477 18.7571 4.06544 19.2637C4.4297 20.2872 5.48829 21.8399 8.53126 21.6397C8.53226 21.6749 8.53321 21.7081 8.5337 21.7383L8.53809 22.0059C8.53809 22.2711 8.64345 22.5255 8.83099 22.713C9.01852 22.9006 9.27288 23.0059 9.53809 23.0059C9.80331 23.0059 10.0577 22.9006 10.2452 22.713C10.4327 22.5255 10.5381 22.2711 10.5381 22.0059L10.5332 21.6876C10.5283 21.4981 10.5215 21.2236 10.5215 20.5059ZM21.1885 5.37987C21.2202 5.25487 21.2515 5.1162 21.2788 4.95995C21.4406 3.84554 21.2996 2.70814 20.8706 1.66695C20.8165 1.53121 20.7333 1.40896 20.627 1.30875C20.5206 1.20855 20.3936 1.13282 20.2549 1.08688C19.8989 0.966758 18.5845 0.730428 16.0708 2.33688C13.9814 1.84517 11.8063 1.84517 9.71682 2.33688C7.21339 0.753958 5.90577 0.968758 5.55323 1.08204C5.4111 1.12612 5.28063 1.20144 5.17138 1.3025C5.06214 1.40355 4.97689 1.52776 4.92188 1.66604C4.48419 2.72722 4.34472 3.88781 4.51856 5.02248C4.54298 5.15041 4.56934 5.26858 4.59669 5.37697C3.76826 6.48041 3.327 7.82633 3.34132 9.20607C3.33862 9.5139 3.35281 9.82166 3.3838 10.1279C3.7178 14.7305 6.7178 16.1123 8.80811 16.5869C8.76466 16.7119 8.72511 16.8457 8.68995 16.9873C8.62729 17.2446 8.66922 17.5163 8.80655 17.7427C8.94388 17.9691 9.1654 18.1318 9.42252 18.1952C9.67965 18.2585 9.95141 18.2173 10.1782 18.0806C10.405 17.9439 10.5683 17.7228 10.6323 17.4658C10.696 17.1326 10.8591 16.8266 11.1001 16.5879C11.2459 16.4603 11.3514 16.2931 11.4039 16.1066C11.4563 15.9201 11.4535 15.7224 11.3956 15.5375C11.3378 15.3526 11.2275 15.1885 11.0781 15.0652C10.9287 14.9419 10.7467 14.8646 10.5542 14.8428C7.10011 14.4483 5.60059 13.041 5.37501 9.94436C5.35003 9.69909 5.33878 9.45261 5.34132 9.20608C5.32528 8.22273 5.65015 7.26416 6.26075 6.49319C6.32211 6.41281 6.38746 6.33556 6.45655 6.26174C6.57899 6.12474 6.6613 5.95666 6.69447 5.77594C6.72763 5.59523 6.71036 5.40887 6.64455 5.23733C6.57709 5.05686 6.52514 4.87096 6.48928 4.68166C6.40782 4.14337 6.43454 3.59425 6.56788 3.06642C7.43702 3.31189 8.255 3.71146 8.98288 4.2461C9.10325 4.32627 9.23946 4.37963 9.38226 4.40254C9.52505 4.42546 9.67111 4.4174 9.81052 4.37892C11.8316 3.83042 13.9624 3.83076 15.9834 4.37992C16.1235 4.41836 16.2704 4.42596 16.4138 4.40219C16.5571 4.37842 16.6937 4.32384 16.8139 4.24223C17.5384 3.70537 18.353 3.30223 19.2192 3.0518C19.352 3.56695 19.3817 4.10325 19.3066 4.62992C19.2704 4.83746 19.2138 5.04092 19.1377 5.23735C19.0719 5.40889 19.0546 5.59525 19.0878 5.77596C19.1209 5.95668 19.2032 6.12476 19.3257 6.26176C19.4028 6.34867 19.48 6.44242 19.5493 6.53031C20.1556 7.28823 20.475 8.23578 20.4512 9.20607C20.453 9.46568 20.4404 9.72519 20.4136 9.98341C20.1934 13.0391 18.688 14.4473 15.2178 14.8428C15.0252 14.8647 14.8432 14.9421 14.6938 15.0656C14.5445 15.189 14.4342 15.3532 14.3764 15.5382C14.3186 15.7232 14.3159 15.921 14.3684 16.1075C14.4209 16.294 14.5265 16.4613 14.6724 16.5889C14.921 16.8339 15.0845 17.1522 15.1387 17.4971C15.2063 17.7648 15.2373 18.0404 15.231 18.3164V20.6504C15.2212 21.2979 15.2212 21.7832 15.2212 22.0059C15.2212 22.2711 15.3265 22.5254 15.5141 22.713C15.7016 22.9005 15.956 23.0059 16.2212 23.0059C16.4864 23.0059 16.7408 22.9005 16.9283 22.713C17.1158 22.5254 17.2212 22.2711 17.2212 22.0059C17.2212 21.7891 17.2212 21.3135 17.231 20.666V18.3164C17.239 17.8742 17.1869 17.433 17.0762 17.0049C17.0445 16.8643 17.0057 16.7255 16.96 16.5889C18.4812 16.3362 19.8634 15.5518 20.8606 14.3755C21.8577 13.1992 22.4051 11.7072 22.4053 10.1651C22.4382 9.84648 22.4535 9.52633 22.4512 9.20607C22.4734 7.82484 22.0284 6.47659 21.1885 5.37989L21.1885 5.37987Z" fill="#F2F2F2"/>
</g>
</g>
</g>
</svg>
